#N canvas 356 22 796 679 10;
#X declare -lib mrpeach;
#X obj 29 60 route /braid/note;
#X obj 29 134 ==;
#X floatatom 140 100 5 0 0 0 - - -;
#X obj 29 171 gate;
#X obj 29 -14 udpreceive 5280;
#X obj 29 -51 import mrpeach;
#X obj 29 23 unpackOSC;
#X obj 193 385 ctlout;
#X obj 29 97 zl slice 1;
#X msg 29 338 \$1 \$2;
#X obj 29 385 noteout;
#X text 79 495 so before I was using velocity not as velocity but filter
cutoff. so experiment with that.;
#X obj 193 274 gate;
#X obj 214 245 tgl 15 0 empty empty empty 17 7 0 10 -262144 -1 -1 0
1;
#X obj 214 181 loadbang;
#X msg 214 208 1;
#X obj 29 208 zl slice 2;
#X obj 193 311 unpack 0 0 0 0 0 0 0 0 0 0 0 0 0 0 0 0 0 0 0 0 0 0 0
0 0 0 0;
#X text 176 96 channel;
#X msg 193 338 \$1 61;
#X msg 234 338 \$1 60;
#X msg 275 338 \$1 59;
#X msg 316 338 \$1 58;
#X msg 357 338 \$1 55;
#X msg 398 338 \$1 54;
#X msg 439 338 \$1 53;
#X msg 480 338 \$1 52;
#X msg 521 338 \$1 51;
#X msg 562 338 \$1 50;
#X msg 603 338 \$1 49;
#X msg 644 338 \$1 48;
#X msg 684 338 \$1 77;
#X msg 725 338 \$1 79;
#X msg 766 338 \$1 78;
#X msg 807 338 \$1 74;
#X msg 848 338 \$1 75;
#X msg 889 338 \$1 73;
#X msg 930 338 \$1 72;
#X msg 971 338 \$1 76;
#X msg 1012 338 \$1 71;
#X msg 1053 338 \$1 70;
#X msg 1094 338 \$1 67;
#X msg 1135 338 \$1 66;
#X msg 1175 338 \$1 65;
#X msg 1216 338 \$1 68;
#X msg 1257 338 \$1 69;
#X text 235 243 disengage for manual control;
#X connect 0 0 8 0;
#X connect 1 0 3 1;
#X connect 2 0 1 1;
#X connect 2 0 10 2;
#X connect 2 0 7 2;
#X connect 3 0 16 0;
#X connect 4 0 6 0;
#X connect 6 0 0 0;
#X connect 8 0 1 0;
#X connect 8 1 3 0;
#X connect 9 0 10 0;
#X connect 12 0 17 0;
#X connect 13 0 12 1;
#X connect 14 0 15 0;
#X connect 15 0 13 0;
#X connect 16 0 9 0;
#X connect 16 1 12 0;
#X connect 17 0 19 0;
#X connect 17 1 20 0;
#X connect 17 2 21 0;
#X connect 17 3 22 0;
#X connect 17 4 23 0;
#X connect 17 5 24 0;
#X connect 17 6 25 0;
#X connect 17 7 26 0;
#X connect 17 8 27 0;
#X connect 17 9 28 0;
#X connect 17 10 29 0;
#X connect 17 11 30 0;
#X connect 17 12 31 0;
#X connect 17 13 32 0;
#X connect 17 14 33 0;
#X connect 17 15 34 0;
#X connect 17 16 35 0;
#X connect 17 17 36 0;
#X connect 17 18 37 0;
#X connect 17 19 38 0;
#X connect 17 20 39 0;
#X connect 17 21 40 0;
#X connect 17 22 41 0;
#X connect 17 23 42 0;
#X connect 17 24 43 0;
#X connect 17 25 44 0;
#X connect 17 26 45 0;
#X connect 19 0 7 0;
#X connect 20 0 7 0;
#X connect 21 0 7 0;
#X connect 22 0 7 0;
#X connect 23 0 7 0;
#X connect 24 0 7 0;
#X connect 25 0 7 0;
#X connect 26 0 7 0;
#X connect 27 0 7 0;
#X connect 28 0 7 0;
#X connect 29 0 7 0;
#X connect 30 0 7 0;
#X connect 31 0 7 0;
#X connect 32 0 7 0;
#X connect 33 0 7 0;
#X connect 34 0 7 0;
#X connect 35 0 7 0;
#X connect 36 0 7 0;
#X connect 37 0 7 0;
#X connect 38 0 7 0;
#X connect 39 0 7 0;
#X connect 40 0 7 0;
#X connect 41 0 7 0;
#X connect 42 0 7 0;
#X connect 43 0 7 0;
#X connect 44 0 7 0;
#X connect 45 0 7 0;
