{
	"patcher" : 	{
		"fileversion" : 1,
		"appversion" : 		{
			"major" : 5,
			"minor" : 1,
			"revision" : 9
		}
,
		"rect" : [ 17.0, 80.0, 526.0, 229.0 ],
		"bglocked" : 0,
		"defrect" : [ 17.0, 80.0, 526.0, 229.0 ],
		"openrect" : [ 0.0, 0.0, 0.0, 0.0 ],
		"openinpresentation" : 0,
		"default_fontsize" : 12.0,
		"default_fontface" : 0,
		"default_fontname" : "Arial",
		"gridonopen" : 0,
		"gridsize" : [ 15.0, 15.0 ],
		"gridsnaponopen" : 0,
		"toolbarvisible" : 1,
		"boxanimatetime" : 200,
		"imprint" : 0,
		"enablehscroll" : 1,
		"enablevscroll" : 1,
		"devicewidth" : 0.0,
		"boxes" : [ 			{
				"box" : 				{
					"maxclass" : "message",
					"text" : "12 44 10",
					"numoutlets" : 1,
					"patching_rect" : [ 330.0, 135.0, 57.0, 18.0 ],
					"fontname" : "Arial",
					"outlettype" : [ "" ],
					"id" : "obj-11",
					"fontsize" : 12.0,
					"numinlets" : 2,
					"presentation_rect" : [ 328.0, 140.0, 0.0, 0.0 ]
				}

			}
, 			{
				"box" : 				{
					"maxclass" : "message",
					"text" : "$3 $2 $1",
					"numoutlets" : 1,
					"patching_rect" : [ 285.0, 105.0, 57.0, 18.0 ],
					"fontname" : "Arial",
					"outlettype" : [ "" ],
					"id" : "obj-9",
					"fontsize" : 12.0,
					"numinlets" : 2,
					"presentation_rect" : [ 289.0, 105.0, 0.0, 0.0 ]
				}

			}
, 			{
				"box" : 				{
					"maxclass" : "newobj",
					"text" : "OSC-route /braid/control",
					"numoutlets" : 2,
					"patching_rect" : [ 285.0, 75.0, 141.0, 20.0 ],
					"fontname" : "Arial",
					"outlettype" : [ "", "" ],
					"id" : "obj-8",
					"fontsize" : 12.0,
					"numinlets" : 1
				}

			}
, 			{
				"box" : 				{
					"maxclass" : "newobj",
					"text" : "ctlout",
					"numoutlets" : 0,
					"patching_rect" : [ 285.0, 180.0, 46.0, 20.0 ],
					"fontname" : "Arial",
					"id" : "obj-5",
					"fontsize" : 12.0,
					"numinlets" : 3
				}

			}
, 			{
				"box" : 				{
					"maxclass" : "newobj",
					"text" : "loadbang",
					"numoutlets" : 1,
					"patching_rect" : [ 135.0, 105.0, 60.0, 20.0 ],
					"fontname" : "Arial",
					"outlettype" : [ "bang" ],
					"id" : "obj-4",
					"fontsize" : 12.0,
					"numinlets" : 1
				}

			}
, 			{
				"box" : 				{
					"maxclass" : "message",
					"text" : "port \"USB Uno MIDI Interface\"",
					"linecount" : 2,
					"numoutlets" : 1,
					"patching_rect" : [ 135.0, 135.0, 121.0, 32.0 ],
					"fontname" : "Arial",
					"outlettype" : [ "" ],
					"id" : "obj-3",
					"fontsize" : 12.0,
					"numinlets" : 2
				}

			}
, 			{
				"box" : 				{
					"maxclass" : "message",
					"text" : "$2 $3 $1",
					"numoutlets" : 1,
					"patching_rect" : [ 75.0, 105.0, 57.0, 18.0 ],
					"fontname" : "Arial",
					"outlettype" : [ "" ],
					"id" : "obj-7",
					"fontsize" : 12.0,
					"numinlets" : 2
				}

			}
, 			{
				"box" : 				{
					"maxclass" : "newobj",
					"text" : "noteout",
					"numoutlets" : 0,
					"patching_rect" : [ 75.0, 180.0, 51.0, 20.0 ],
					"fontname" : "Arial",
					"id" : "obj-6",
					"fontsize" : 12.0,
					"numinlets" : 3
				}

			}
, 			{
				"box" : 				{
					"maxclass" : "newobj",
					"text" : "print",
					"numoutlets" : 0,
					"patching_rect" : [ 30.0, 105.0, 34.0, 20.0 ],
					"fontname" : "Arial",
					"id" : "obj-2",
					"fontsize" : 12.0,
					"numinlets" : 1
				}

			}
, 			{
				"box" : 				{
					"maxclass" : "newobj",
					"text" : "OSC-route /braid/note",
					"numoutlets" : 2,
					"patching_rect" : [ 75.0, 75.0, 128.0, 20.0 ],
					"fontname" : "Arial",
					"outlettype" : [ "", "" ],
					"id" : "obj-18",
					"fontsize" : 12.0,
					"numinlets" : 1
				}

			}
, 			{
				"box" : 				{
					"maxclass" : "newobj",
					"text" : "udpreceive 5280",
					"numoutlets" : 1,
					"patching_rect" : [ 75.0, 45.0, 99.0, 20.0 ],
					"fontname" : "Arial",
					"outlettype" : [ "" ],
					"id" : "obj-1",
					"fontsize" : 12.0,
					"numinlets" : 1
				}

			}
 ],
		"lines" : [ 			{
				"patchline" : 				{
					"source" : [ "obj-9", 0 ],
					"destination" : [ "obj-11", 1 ],
					"hidden" : 0,
					"midpoints" : [  ]
				}

			}
, 			{
				"patchline" : 				{
					"source" : [ "obj-8", 0 ],
					"destination" : [ "obj-2", 0 ],
					"hidden" : 0,
					"midpoints" : [ 294.5, 99.5, 39.5, 99.5 ]
				}

			}
, 			{
				"patchline" : 				{
					"source" : [ "obj-8", 0 ],
					"destination" : [ "obj-9", 0 ],
					"hidden" : 0,
					"midpoints" : [  ]
				}

			}
, 			{
				"patchline" : 				{
					"source" : [ "obj-1", 0 ],
					"destination" : [ "obj-8", 0 ],
					"hidden" : 0,
					"midpoints" : [  ]
				}

			}
, 			{
				"patchline" : 				{
					"source" : [ "obj-9", 0 ],
					"destination" : [ "obj-5", 0 ],
					"hidden" : 0,
					"midpoints" : [  ]
				}

			}
, 			{
				"patchline" : 				{
					"source" : [ "obj-3", 0 ],
					"destination" : [ "obj-5", 0 ],
					"hidden" : 0,
					"midpoints" : [  ]
				}

			}
, 			{
				"patchline" : 				{
					"source" : [ "obj-4", 0 ],
					"destination" : [ "obj-3", 0 ],
					"hidden" : 0,
					"midpoints" : [  ]
				}

			}
, 			{
				"patchline" : 				{
					"source" : [ "obj-18", 0 ],
					"destination" : [ "obj-7", 0 ],
					"hidden" : 0,
					"midpoints" : [  ]
				}

			}
, 			{
				"patchline" : 				{
					"source" : [ "obj-1", 0 ],
					"destination" : [ "obj-18", 0 ],
					"hidden" : 0,
					"midpoints" : [  ]
				}

			}
, 			{
				"patchline" : 				{
					"source" : [ "obj-7", 0 ],
					"destination" : [ "obj-6", 0 ],
					"hidden" : 0,
					"midpoints" : [  ]
				}

			}
, 			{
				"patchline" : 				{
					"source" : [ "obj-3", 0 ],
					"destination" : [ "obj-6", 0 ],
					"hidden" : 0,
					"midpoints" : [ 144.5, 166.0, 84.5, 166.0 ]
				}

			}
 ]
	}

}
